<?xml version="1.0" encoding="iso-8859-1"?>
<!-- Generator: Adobe Illustrator 19.0.0, SVG Export Plug-In . SVG Version: 6.00 Build 0)  -->
<svg version="1.1" id="Layer_1" xmlns="http://www.w3.org/2000/svg" xmlns:xlink="http://www.w3.org/1999/xlink" x="0px" y="0px"
	 viewBox="0 0 511.992 511.992" style="enable-background:new 0 0 511.992 511.992;" xml:space="preserve">
<g>
	<path style="fill:#971311;" d="M193.748,246.843c-4.329,0-7.837,3.508-7.837,7.837v14.679c0,4.329,3.508,7.837,7.837,7.837
		c4.329,0,7.837-3.508,7.837-7.837V254.68C201.585,250.352,198.077,246.843,193.748,246.843z"/>
	<path style="fill:#971311;" d="M350.633,125.546c-7.754,35.013-21.348,63.738-39.313,83.069
		c-16.051,17.271-34.803,26.401-54.228,26.401s-38.177-9.129-54.228-26.401c-17.965-19.332-31.559-48.056-39.313-83.069
		c-0.468-2.115-1.75-3.841-3.445-4.918v47.202c6.972,17.437,15.649,32.661,25.807,45.122v13.117c0,4.329,3.508,7.837,7.837,7.837
		c3.417,0,6.314-2.19,7.386-5.239c5.073,4.341,10.346,8.06,15.784,11.141v36.308c0,4.329,3.508,7.837,7.837,7.837
		c4.329,0,7.837-3.508,7.837-7.837v-29.352c5.023,1.641,10.143,2.775,15.337,3.387v25.966c0,4.329,3.508,7.837,7.837,7.837
		c4.329,0,7.837-3.508,7.837-7.837v-25.697c5.188-0.433,10.308-1.382,15.336-2.837v28.534c0,4.329,3.508,7.837,7.837,7.837
		s7.837-3.508,7.837-7.837V241.25c5.268-2.757,10.394-6.101,15.338-10.026v44.891c0,4.329,3.508,7.837,7.837,7.837
		s7.837-3.508,7.837-7.837v-60.004c10.302-11.861,19.184-26.462,26.408-43.294v-50.29
		C351.374,123.396,350.884,124.413,350.633,125.546z"/>
	<path style="fill:#971311;" d="M501.199,229.035c-32.91-12.354-58.647-49.465-70.61-101.819c-0.594-2.602-2.421-4.6-4.723-5.524
		v43.527c6.969,17.716,15.757,33.102,26.029,45.691v64.814c0,4.329,3.508,7.837,7.837,7.837c4.329,0,7.837-3.508,7.837-7.837
		v-48.779c4.886,4.128,10.005,7.724,15.336,10.748v38.03c0,4.329,3.508,7.837,7.837,7.837c4.328,0,7.837-3.508,7.837-7.837v-31.524
		c3.12-0.054,6.041-1.975,7.205-5.074C507.303,235.074,505.251,230.555,501.199,229.035z"/>
	<path style="fill:#971311;" d="M87.671,118.088c-2.007,1.039-3.555,2.929-4.069,5.31c-11.687,54.235-36.785,92.663-68.855,105.426
		c-4.022,1.601-5.983,6.159-4.383,10.179c1.223,3.071,4.168,4.941,7.284,4.941c0.025,0,0.052-0.003,0.077-0.004v31.784
		c0,4.329,3.509,7.837,7.837,7.837c4.329,0,7.837-3.508,7.837-7.837v-38.781c5.339-3.244,10.459-7.114,15.337-11.561v50.342
		c0,4.329,3.508,7.837,7.837,7.837s7.837-3.508,7.837-7.837v-67.74c9.066-12.099,16.895-26.611,23.263-43.141v-46.756H87.671z"/>
</g>
<path style="fill:#E02424;" d="M425.94,81.432h-7.98c-2.88,0-5.237,2.357-5.237,5.238v17.283h-45.648V86.67
	c0-2.881-2.356-5.238-5.237-5.238h-7.98c-2.881,0-5.237,2.357-5.237,5.238v263.939h18.453V228.265h45.65v122.343h18.453V86.669
	C431.176,83.788,428.82,81.432,425.94,81.432z M412.723,122.3v29.906h-45.648V122.3C367.075,122.3,412.723,122.3,412.723,122.3z
	 M367.075,209.915v-39.36h45.649v39.36H367.075z"/>
<path style="fill:#971311;" d="M442.979,367.812v-22.946c0-2.88-2.356-5.237-5.237-5.237h-95.685c-2.881,0-5.238,2.357-5.238,5.237
	v22.946H442.979z"/>
<path style="opacity:0.1;enable-background:new    ;" d="M369.334,367.812v-22.946c0-2.88,2.355-5.237,5.237-5.237h-32.513
	c-2.881,0-5.238,2.357-5.238,5.237v22.946H369.334z"/>
<path style="fill:#5BA6DD;" d="M193.96,430.56c-11.481,0-22.401-4.334-31.018-12.123c-8.618,7.788-19.539,12.123-31.021,12.123
	s-22.402-4.335-31.021-12.123c-8.618,7.787-19.539,12.123-31.021,12.123c-14.465,0-28.038-6.879-37.239-18.872
	c-2.635-3.434-1.986-8.354,1.447-10.988c3.434-2.636,8.354-1.985,10.988,1.447c6.212,8.096,15.252,12.739,24.804,12.739
	c9.551,0,18.592-4.644,24.803-12.739c1.483-1.933,3.78-3.067,6.217-3.067c2.437,0,4.734,1.134,6.217,3.067
	c6.212,8.096,15.253,12.739,24.804,12.739s18.592-4.644,24.803-12.739c1.483-1.933,3.78-3.067,6.217-3.067l0,0
	c2.437,0,4.734,1.134,6.218,3.068c6.21,8.096,15.249,12.738,24.8,12.738c9.554,0,18.594-4.642,24.803-12.738
	c1.483-1.934,3.78-3.068,6.217-3.068s4.734,1.133,6.218,3.066c3.465,4.516,7.904,8.049,12.836,10.218
	c3.962,1.742,5.763,6.367,4.02,10.328c-1.743,3.962-6.371,5.764-10.328,4.02c-4.614-2.028-8.918-4.835-12.737-8.28
	C216.37,426.223,205.447,430.56,193.96,430.56z"/>
<path style="fill:#2982D3;" d="M442.126,430.56c-11.481,0-22.403-4.334-31.019-12.123c-8.617,7.788-19.538,12.123-31.022,12.123
	c-11.481,0-22.403-4.334-31.021-12.123c-8.617,7.788-19.539,12.123-31.022,12.123c-11.48,0-22.402-4.335-31.019-12.123
	c-4.801,4.337-10.349,7.633-16.378,9.692c-4.098,1.401-8.55-0.787-9.951-4.883c-1.399-4.096,0.787-8.55,4.883-9.95
	c5.915-2.021,11.18-5.876,15.226-11.151c1.484-1.933,3.781-3.067,6.218-3.067s4.734,1.134,6.217,3.067
	c6.211,8.096,15.252,12.739,24.802,12.739c9.552,0,18.594-4.644,24.805-12.739c1.483-1.933,3.78-3.067,6.217-3.067h0.001
	c2.437,0,4.734,1.134,6.217,3.068c6.209,8.096,15.25,12.738,24.801,12.738c9.553,0,18.592-4.642,24.802-12.738
	c1.483-1.934,3.78-3.068,6.218-3.068c2.437,0,4.734,1.134,6.217,3.067c6.211,8.096,15.252,12.739,24.803,12.739
	c9.553,0,18.594-4.642,24.803-12.738c2.633-3.434,7.553-4.083,10.988-1.449c3.435,2.633,4.082,7.553,1.449,10.988
	C470.165,423.68,456.593,430.56,442.126,430.56z"/>
<path style="fill:#971311;" d="M505.343,281.765c0,2.881-2.357,5.238-5.238,5.238H14.253c-2.88,0-5.237-2.357-5.237-5.238v-6.98
	c0-2.881,2.357-5.238,5.237-5.238h485.852c2.881,0,5.238,2.357,5.238,5.238v6.98H505.343z"/>
<path style="fill:#E02424;" d="M159.824,81.432h-7.979c-2.881,0-5.237,2.357-5.237,5.238v17.283H100.96V86.67
	c0-2.881-2.357-5.238-5.237-5.238h-7.98c-2.88,0-5.237,2.357-5.237,5.238v263.939h18.453V228.265h45.65v122.343h18.452V86.669
	C165.061,83.788,162.705,81.432,159.824,81.432z M146.61,122.3v29.906H100.96V122.3C100.96,122.3,146.61,122.3,146.61,122.3z
	 M100.96,209.915v-39.36h45.649v39.36H100.96z"/>
<path style="fill:#971311;" d="M176.865,367.812v-22.946c0-2.88-2.357-5.237-5.238-5.237H75.941c-2.881,0-5.237,2.357-5.237,5.237
	v22.946H176.865z"/>
<path style="opacity:0.1;enable-background:new    ;" d="M103.299,367.812v-22.946c0-2.88,2.357-5.237,5.237-5.237H75.941
	c-2.881,0-5.237,2.357-5.237,5.237v22.946H103.299z"/>
<path style="fill:#0853A4;" d="M504.165,383.092c-11.48,0-22.402-4.334-31.018-12.123c-8.617,7.788-19.539,12.123-31.022,12.123
	c-11.481,0-22.402-4.334-31.019-12.123c-8.617,7.788-19.54,12.123-31.022,12.123c-11.481,0-22.403-4.334-31.021-12.123
	c-8.618,7.788-19.539,12.123-31.022,12.123c-11.48,0-22.402-4.334-31.019-12.124c-8.618,7.789-19.54,12.124-31.022,12.124
	c-11.48,0-22.402-4.334-31.019-12.124c-8.617,7.787-19.54,12.124-31.023,12.124c-11.481,0-22.401-4.334-31.018-12.124
	c-8.619,7.789-19.539,12.124-31.021,12.124c-11.482,0-22.402-4.334-31.021-12.124c-8.618,7.789-19.539,12.124-31.021,12.124
	s-22.402-4.334-31.021-12.123c-8.617,7.788-19.539,12.123-31.021,12.123c-4.329,0-7.837-3.508-7.837-7.837
	c0-4.33,3.508-7.838,7.837-7.838c9.551,0,18.591-4.642,24.802-12.738c1.483-1.933,3.78-3.067,6.216-3.067
	c2.437,0,4.734,1.133,6.218,3.067c6.212,8.096,15.253,12.738,24.804,12.738s18.591-4.642,24.803-12.738
	c1.484-1.934,3.78-3.067,6.217-3.067c2.437,0,4.733,1.133,6.217,3.067c6.212,8.096,15.253,12.738,24.804,12.738
	s18.591-4.642,24.803-12.738c1.484-1.933,3.78-3.067,6.217-3.067l0,0c2.437,0,4.734,1.134,6.217,3.067
	c6.211,8.096,15.251,12.738,24.801,12.738c9.554,0,18.593-4.642,24.804-12.738c1.483-1.933,3.78-3.067,6.216-3.067
	c2.437,0,4.734,1.133,6.218,3.066c6.213,8.096,15.254,12.739,24.803,12.739c9.551,0,18.592-4.642,24.804-12.738
	c1.484-1.934,3.78-3.067,6.217-3.067c2.437,0,4.733,1.133,6.217,3.067c6.212,8.096,15.252,12.738,24.802,12.738
	c9.552,0,18.593-4.642,24.805-12.738c1.484-1.933,3.78-3.067,6.217-3.067l0,0c2.437,0,4.734,1.134,6.217,3.067
	c6.211,8.096,15.251,12.738,24.802,12.738c9.55,0,18.592-4.642,24.803-12.738c1.483-1.933,3.78-3.067,6.216-3.067
	c2.437,0,4.734,1.133,6.218,3.067c6.212,8.096,15.253,12.738,24.803,12.738c9.554,0,18.593-4.642,24.804-12.738
	c1.483-1.933,3.78-3.067,6.217-3.067s4.734,1.134,6.217,3.067c6.211,8.096,15.251,12.738,24.801,12.738
	c4.329,0,7.837,3.508,7.837,7.838C512.002,379.583,508.494,383.092,504.165,383.092z"/>
<g>
</g>
<g>
</g>
<g>
</g>
<g>
</g>
<g>
</g>
<g>
</g>
<g>
</g>
<g>
</g>
<g>
</g>
<g>
</g>
<g>
</g>
<g>
</g>
<g>
</g>
<g>
</g>
<g>
</g>
</svg>
